<svg xmlns="http://www.w3.org/2000/svg" version="1.1" xmlns:xlink="http://www.w3.org/1999/xlink" width="559.69" height="586"><svg id="SvgjsSvg1038" data-name="Layer 1" xmlns="http://www.w3.org/2000/svg" width="559.69" height="586" viewBox="0 0 559.69 586">
  <path d="M183.82,392.51c3.98,1.27,9.14,33.9,15.61,37.21l58.81-220.3,46.9,254.52,52.09-174.13,40.17,102.7h70.7c.16,0,2.23,2.07,2.23,2.23v26.05h-92.28c-5.29-12.46-8.76-27.54-14.84-39.48-.71-1.4-.85-3.53-3-3.68l-62.51,208.37-43.9-245.61-2.24-1.47-49.15,187.53-37.19-105.67h-74.42v-28.28h93.03,0Z" style="fill: #555555;"></path>
  <path d="M279.82,1.06v47.63c-64.44,63.2-130.52,123.13-195.86,185.21-16.02,15.22-30.16,32.16-48.24,45.49L0,265.99l.45-2.55c64.93-60.79,129.85-121.84,194.55-182.74,27.7-26.07,54.74-52.99,82.38-79.1.7-.71,1.64-.4,2.44-.55h0Z" style="fill: #fcc743;"></path>
  <path d="M559.64,265.99l-34.23,13.4L287.29,53.88l-7.46-5.2V1.06c.11-.02.33-1.15.76-1.05l278.3,263.07c.77.85.57,1.92.76,2.92h-.01Z" style="fill: #d6d1c4;"></path>
  <polygon points="35.72 279.39 35.72 536.88 0 536.88 0 265.99 35.72 279.39" style="fill: #e8454c;"></polygon>
  <path d="M559.64,265.99c.17.91-.12,2.02,0,2.98v266.42c-3.66,3.68-27.6.33-34.24,1.5v-257.5l34.24-13.4Z" style="fill: #57bed1;"></path>
</svg><style>@media (prefers-color-scheme: light) { :root { filter: none; } }
@media (prefers-color-scheme: dark) { :root { filter: none; } }
</style></svg>